<svg width="528" height="308" viewBox="0 0 528 308" fill="none" xmlns="http://www.w3.org/2000/svg">
<rect x="2" y="2" width="524" height="304" rx="8" stroke="white" stroke-width="4"/>
<path d="M333 196H28V197H333V196Z" fill="white" fill-opacity="0.16"/>
<path d="M273 115H271V278H273V115Z" fill="white" fill-opacity="0.16"/>
<path d="M211 115H209V278H211V115Z" fill="white" fill-opacity="0.16"/>
<path d="M90 115H88V278H90V115Z" fill="white" fill-opacity="0.16"/>
<path d="M210 197C209.854 197 209.7 197 209.554 197.005C176.384 197.161 149.425 214.981 149.014 236.976C149 237.152 149 237.323 149 237.5C149 259.832 176.363 278 210 278C243.637 278 271 259.832 271 237.5C271 215.168 243.637 197 210 197ZM210 276.962C177.137 276.962 150.394 259.261 150.394 237.5C150.394 237.007 150.408 236.519 150.443 236.031C151.58 215.402 176.767 198.765 207.95 198.064C208.627 198.044 209.31 198.038 210 198.038C242.863 198.038 269.606 215.739 269.606 237.5C269.606 259.261 242.863 276.962 210 276.962Z" fill="white" fill-opacity="0.16"/>
<path d="M177.349 236L174 235.987C174.001 235.771 174.538 214.477 208.8 213L209 215.414C177.926 216.753 177.358 235.215 177.349 236Z" fill="#262D3D"/>
<path d="M246.237 236.013L246.237 236.027L246.238 236.04C246.25 236.176 246.25 236.322 246.25 236.5C246.25 242.635 242.431 248.298 236.057 252.466C229.69 256.629 220.855 259.236 211.07 259.249L211 259.249L210.995 259.249C202.013 259.303 193.32 257.01 186.48 252.806C179.785 248.613 175.75 242.807 175.75 236.5C175.75 236.322 175.75 236.176 175.762 236.04L175.763 236.022L175.764 236.003C175.963 229.972 179.858 224.424 186.226 220.352C192.585 216.284 201.332 213.751 211 213.751L211.071 213.751L211.075 213.751C220.538 213.7 229.655 216.264 236.604 220.9L236.606 220.901C239.545 222.846 241.901 225.191 243.55 227.788C245.197 230.384 246.106 233.181 246.237 236.013Z" stroke="white" stroke-opacity="0.16" stroke-width="1.5"/>
<path d="M234.539 220.254L234.537 220.255L186.545 251.686L186.544 251.687L185.899 252.107C179.557 247.983 175.75 242.351 175.75 236.242C175.75 236.066 175.75 235.922 175.762 235.788L175.763 235.769L175.764 235.751C175.96 229.788 179.789 224.303 186.049 220.277C192.302 216.256 200.902 213.751 210.408 213.751L210.478 213.751L210.482 213.751C219.358 213.703 227.923 216.007 234.624 220.198L234.539 220.254Z" stroke="white" stroke-opacity="0.16" stroke-width="1.5"/>
<path d="M150 115H149V278H150V115Z" fill="white" fill-opacity="0.16"/>
<path d="M487 93.3891V120.587C486.999 120.838 486.888 121.079 486.691 121.256C486.494 121.434 486.228 121.534 485.949 121.535H485.201V263.217C485.201 267.138 483.475 270.898 480.402 273.67C477.329 276.442 473.162 278 468.817 278H370.701C368.55 278 366.42 277.617 364.432 276.874C362.445 276.131 360.639 275.042 359.118 273.669C357.597 272.297 356.391 270.667 355.568 268.874C354.745 267.08 354.321 265.158 354.322 263.217V126.504H353.78C353.584 126.504 353.395 126.434 353.256 126.309C353.116 126.184 353.038 126.015 353.037 125.837V110.359C353.037 110.271 353.056 110.183 353.093 110.102C353.131 110.02 353.185 109.947 353.254 109.884C353.323 109.822 353.405 109.773 353.496 109.739C353.586 109.705 353.683 109.688 353.78 109.688H354.322V103.857H353.776C353.569 103.857 353.372 103.782 353.226 103.65C353.081 103.518 353 103.339 353 103.153V87.8858C353.001 87.7003 353.082 87.5226 353.228 87.3915C353.373 87.2603 353.57 87.1864 353.776 87.186H354.322V79.2271H353.766C353.676 79.2272 353.586 79.2112 353.503 79.18C353.419 79.1489 353.343 79.1031 353.279 79.0454C353.215 78.9877 353.165 78.9192 353.13 78.8438C353.096 78.7684 353.078 78.6876 353.078 78.606V70.2744C353.078 70.1092 353.15 69.9505 353.279 69.8333C353.408 69.7161 353.583 69.6498 353.766 69.6491H354.322V52.779C354.322 48.8594 356.048 45.1004 359.119 42.3288C362.191 39.5573 366.357 38.0001 370.701 38H468.817C473.161 38 477.328 39.5569 480.401 42.3284C483.473 45.0999 485.2 48.859 485.201 52.779V92.4408H485.949C486.228 92.4415 486.494 92.5416 486.691 92.7193C486.888 92.897 486.999 93.1378 487 93.3891V93.3891Z" fill="#3F3D56"/>
<path d="M422.979 45H409.021C408.457 45 408 45.5629 408 46.2574V47.7426C408 48.4371 408.457 49 409.021 49H422.979C423.543 49 424 48.4371 424 47.7426V46.2574C424 45.5629 423.543 45 422.979 45Z" fill="#E6E8EC"/>
<path d="M430 49C431.105 49 432 48.1046 432 47C432 45.8954 431.105 45 430 45C428.895 45 428 45.8954 428 47C428 48.1046 428.895 49 430 49Z" fill="#E6E8EC"/>
<path d="M477 55.3588V263.645C476.999 266.127 475.9 268.506 473.946 270.26C471.992 272.014 469.342 273 466.579 273H372.421C371.052 273.002 369.696 272.762 368.431 272.292C367.166 271.823 366.017 271.134 365.049 270.265C364.08 269.396 363.313 268.364 362.79 267.228C362.267 266.092 361.998 264.875 362 263.645V55.3588C362 54.1298 362.269 52.9128 362.793 51.7773C363.317 50.6418 364.084 49.6101 365.052 48.741C366.02 47.872 367.169 47.1826 368.433 46.7123C369.697 46.242 371.053 45.9999 372.421 46H386.514V47.6238C386.514 49.6676 387.418 51.6277 389.027 53.0728C390.636 54.518 392.819 55.3299 395.094 55.3299H442.981C445.257 55.3299 447.439 54.518 449.048 53.0728C450.657 51.6277 451.562 49.6676 451.562 47.6238V46H466.579C467.948 45.9996 469.303 46.2414 470.567 46.7116C471.832 47.1818 472.981 47.8711 473.949 48.7402C474.917 49.6094 475.684 50.6412 476.208 51.7769C476.731 52.9125 477 54.1297 477 55.3588V55.3588Z" fill="white"/>
<path d="M467 183H372V195H467V183Z" fill="#3F3D56"/>
<path d="M467 204H372V215H467V204Z" fill="#3F3D56"/>
<path d="M467 224H372V235H467V224Z" fill="#3F3D56"/>
<path d="M457 84C461.971 84 466 80.1944 466 75.5C466 70.8056 461.971 67 457 67C452.029 67 448 70.8056 448 75.5C448 80.1944 452.029 84 457 84Z" fill="#EAC91D"/>
<path d="M467 103H372V160H467V103Z" fill="#E6E6E6"/>
<path d="M410.725 135.244C413.125 144.356 421.346 150 421.346 150C421.346 150 425.675 140.869 423.275 131.756C420.875 122.644 412.654 117 412.654 117C412.654 117 408.325 126.131 410.725 135.244Z" fill="#3F3D56"/>
<path d="M414.324 133.185C422.056 139.812 423 150 423 150C423 150 411.408 149.443 403.676 142.815C395.944 136.188 395 126 395 126C395 126 406.592 126.557 414.324 133.185Z" fill="#EAC91D"/>
<path d="M435.172 135.244C432.429 144.356 423.033 150 423.033 150C423.033 150 418.085 140.869 420.828 131.756C423.571 122.644 432.967 117 432.967 117C432.967 117 437.915 126.131 435.172 135.244Z" fill="#3F3D56"/>
<path d="M431.367 133.185C423.911 139.812 423 150 423 150C423 150 434.178 149.443 441.633 142.815C449.089 136.188 450 126 450 126C450 126 438.822 126.557 431.367 133.185Z" fill="#EAC91D"/>
<path d="M119.76 158.284C119.76 158.284 126.063 168.288 123.812 170.996C121.561 173.704 140.699 173.772 140.699 173.772C140.699 173.772 137.824 159.22 138.67 155.871L119.76 158.284Z" fill="#FFB8B8"/>
<path d="M129.832 161.909C140.747 161.909 149.595 153.055 149.595 142.132C149.595 131.209 140.747 122.354 129.832 122.354C118.918 122.354 110.069 131.209 110.069 142.132C110.069 153.055 118.918 161.909 129.832 161.909Z" fill="#2F2E41"/>
<path d="M176.315 249.331V261.055L188.031 258.612L187.055 250.308L176.315 249.331Z" fill="#FFB8B8"/>
<path d="M217.809 251.285L250.516 256.658L242.217 268.871C242.217 268.871 219.273 261.055 213.415 261.055C207.557 261.055 217.809 251.285 217.809 251.285Z" fill="#FFB8B8"/>
<path d="M143.608 227.836C143.608 227.836 168.016 199.502 175.827 200.968C183.637 202.433 187.055 211.226 187.055 211.226L191.448 254.704C191.448 254.704 175.827 256.17 175.827 254.704C175.827 253.239 172.898 221.974 172.898 221.974C172.898 221.974 149.954 272.779 137.75 239.072L143.608 227.836Z" fill="#D0CDE1"/>
<path d="M104.067 246.888C104.067 246.888 104.555 272.481 119.2 273.947C133.845 275.413 149.954 263.009 149.954 263.009L176.315 250.371C176.315 250.371 207.558 266.917 216.833 262.521C216.833 262.521 226.596 252.262 220.25 249.331C213.904 246.4 219.762 249.331 219.762 249.331L182.173 229.79C182.173 229.79 174.851 227.836 162.158 233.21C149.466 238.583 132.38 241.026 132.38 241.026L104.067 246.888Z" fill="#D0CDE1"/>
<path d="M128.475 163.352C136.563 163.352 143.12 156.79 143.12 148.696C143.12 140.602 136.563 134.041 128.475 134.041C120.387 134.041 113.83 140.602 113.83 148.696C113.83 156.79 120.387 163.352 128.475 163.352Z" fill="#FFB8B8"/>
<path d="M149.466 189.732L148.49 210.249C148.49 210.249 148.978 237.118 144.584 239.072C142.363 240.059 137.901 242.042 133.776 244.211C130.681 245.833 127.777 247.552 126.156 249.033C125.727 249.398 125.356 249.829 125.058 250.308C123.105 253.727 110.413 253.239 107.484 250.796C104.555 248.354 106.508 253.727 104.067 254.704C101.704 255.652 98.4285 247.904 100.435 236.336C100.498 235.95 100.572 235.559 100.65 235.164C102.89 223.952 99.3706 197.099 99.9125 186.722C99.944 185.93 100.027 185.14 100.161 184.358C101.626 176.542 120.313 160.636 123.808 167.411C128.114 175.775 138.004 168.134 139.703 164.329C149.466 163.84 152.883 175.565 152.883 175.565L149.466 189.732Z" fill="#EAC91D"/>
<path d="M189.007 256.658C189.007 256.658 181.197 259.59 178.756 259.101C176.315 258.613 173.874 260.567 173.874 263.498C173.874 266.429 170.945 273.268 175.339 273.756C179.732 274.245 197.794 273.268 201.7 274.734C201.7 274.734 219.274 275.222 217.809 267.894C216.345 260.567 209.022 261.055 209.022 261.055C209.022 261.055 189.007 260.078 189.007 256.658Z" fill="#2F2E41"/>
<path d="M246.123 258.124C246.123 258.124 247.099 255.193 248.563 255.193C250.028 255.193 261.744 257.147 263.208 256.658C264.673 256.17 281.759 255.193 278.83 263.498C275.901 271.802 266.137 272.779 266.137 272.779C266.137 272.779 248.563 270.825 246.123 271.314C243.682 271.802 234.895 271.314 236.359 268.871C237.824 266.429 247.099 262.032 246.123 258.124Z" fill="#2F2E41"/>
<path d="M201.687 187.955L204.365 199.01C204.395 199.134 204.39 199.263 204.352 199.384L192.203 237.375C192.155 237.526 192.057 237.655 191.925 237.742C191.793 237.829 191.635 237.868 191.478 237.852C191.321 237.837 191.174 237.768 191.062 237.657C190.949 237.546 190.878 237.4 190.86 237.243L189.18 222.443C189.169 222.345 189.179 222.245 189.209 222.151L200.36 187.904C200.407 187.761 200.499 187.637 200.622 187.551C200.745 187.465 200.893 187.422 201.043 187.428C201.193 187.434 201.337 187.488 201.453 187.583C201.57 187.678 201.652 187.809 201.687 187.955V187.955Z" fill="#3F3D56"/>
<path d="M200.702 188.888L203.175 198.374L192.46 233.016L189.987 222.294L200.702 188.888Z" fill="white"/>
<path d="M146.715 240.44C147.128 241.677 189.575 240.027 189.987 239.615C190.346 239.098 190.65 238.545 190.894 237.965C191.281 237.14 191.635 236.315 191.635 236.315L189.987 222.962L147.952 221.469C147.952 221.469 146.901 232.785 146.687 237.965C146.614 238.789 146.623 239.618 146.715 240.44V240.44Z" fill="#3F3D56"/>
<path opacity="0.1" d="M184.629 224.768L185.453 236.316H166.909V224.768H184.629Z" fill="black"/>
<path opacity="0.1" d="M160.727 228.48L160.838 228.458L160.315 233.429H150.012V228.48H160.727Z" fill="black"/>
<path opacity="0.1" d="M146.715 240.44C147.128 241.677 189.575 240.027 189.987 239.615C190.346 239.099 190.65 238.546 190.894 237.965H146.687C146.614 238.789 146.623 239.618 146.715 240.44V240.44Z" fill="black"/>
<path d="M133.107 126.023C136.149 126.023 138.615 123.556 138.615 120.512C138.615 117.468 136.149 115 133.107 115C130.065 115 127.599 117.468 127.599 120.512C127.599 123.556 130.065 126.023 133.107 126.023Z" fill="#2F2E41"/>
<path d="M131.451 126.511C131.451 126.511 125.823 135.878 112.738 139.384C99.6531 142.891 112.631 162.568 112.631 162.568C112.631 162.568 107.912 155.413 114.719 147.835C121.526 140.257 132.48 135.076 131.451 126.511Z" fill="#2F2E41"/>
<path opacity="0.1" d="M133.776 244.211C132.571 246.492 131.155 248.862 130.916 249.819C130.755 250.469 128.968 250.093 126.156 249.033C120.518 246.898 110.745 242.008 101.626 237.118C101.206 236.895 100.807 236.633 100.435 236.336C100.498 235.95 100.572 235.559 100.65 235.164C102.89 223.952 99.3707 197.098 99.9125 186.722L104.067 185.335L112.366 193.151V226.37C112.366 226.37 133.845 238.095 135.309 239.072C136.056 239.57 135.026 241.842 133.776 244.211Z" fill="black"/>
<path d="M151.907 217.577L165.087 224.416C165.087 224.416 172.898 216.112 177.78 222.462C182.661 228.813 163.623 230.767 163.623 230.767C163.623 230.767 147.025 226.859 146.537 221.485C146.049 216.112 151.907 217.577 151.907 217.577Z" fill="#FFB8B8"/>
<path d="M129.94 235.652L137.75 237.606C137.75 237.606 146.537 226.859 155.812 230.767C165.088 234.675 144.096 242.491 144.096 242.491C144.096 242.491 132.869 248.354 128.475 243.468C124.082 238.583 129.94 235.652 129.94 235.652Z" fill="#FFB8B8"/>
<path d="M147.025 171.168C147.513 171.656 152.883 175.565 152.883 175.565C152.883 175.565 154.348 194.128 152.395 198.036C150.442 201.944 148.978 201.944 150.442 203.899C151.907 205.853 153.859 204.387 151.907 207.807C149.954 211.226 148.001 210.738 149.466 212.203C150.93 213.669 150.442 214.157 150.442 214.157L156.3 219.043C156.3 219.043 152.706 224.771 148.157 224.349C143.608 223.928 139.703 201.944 139.703 201.944L147.025 171.168Z" fill="#EAC91D"/>
<path d="M104.067 182.892L99.6734 184.358C99.6734 184.358 87.9575 227.347 101.626 234.675C115.295 242.003 130.428 249.331 130.916 247.377C131.404 245.422 136.774 237.606 135.309 236.629C133.845 235.652 112.366 223.928 112.366 223.928V190.709L104.067 182.892Z" fill="#EAC91D"/>
<path opacity="0.1" d="M110.657 200.723L109.681 224.172L135.553 236.385L111.633 224.172L110.657 200.723Z" fill="black"/>
</svg>
